<?xml version="1.0" encoding="UTF-8" standalone="no"?>
<svg width="142px" height="23px" viewBox="0 0 142 23" version="1.1" xmlns="http://www.w3.org/2000/svg" xmlns:xlink="http://www.w3.org/1999/xlink">
    <!-- Generator: Sketch 41 (35326) - http://www.bohemiancoding.com/sketch -->
    <title>Page 1</title>
    <desc>Created with Sketch.</desc>
    <defs></defs>
    <g id="Page-1" stroke="none" stroke-width="1" fill="none" fill-rule="evenodd">
        <g id="01_home" transform="translate(-133.000000, -5689.000000)" fill="#0067DC">
            <g id="Footer" transform="translate(-43.000000, 5651.000000)">
                <g id="Page-1" transform="translate(176.000000, 38.000000)">
                    <polygon id="Fill-1" points="25.6596816 1.33606317 25.6596816 2.45196494 34.7823781 2.45196494 34.7823781 22.9216091 36.0857486 22.9216091 36.0857486 2.45196494 45.2084451 2.45196494 45.2084451 1.33606317"></polygon>
                    <polygon id="Fill-2" points="49.8969908 22.9217726 51.2864753 22.9217726 60.7572156 4.14846263 69.6637302 21.8050534 55.1732643 21.8050534 54.6198027 22.9217726 71.6183375 22.9217726 60.7572156 1.283906"></polygon>
                    <polygon id="Fill-3" points="76.2938764 1.33606317 76.2938764 2.45196494 85.4174699 2.45196494 85.4174699 22.9216091 86.7208404 22.9216091 86.7208404 2.45196494 95.8435369 2.45196494 95.8435369 1.33606317"></polygon>
                    <polygon id="Fill-4" points="107.597463 22.9219361 108.900834 22.9219361 108.900834 1.33639018 107.597463 1.33639018"></polygon>
                    <path d="M138.562335,1.33606317 L126.571864,12.1729817 L139.952716,22.9216091 L141.820312,22.9216091 L128.441255,12.1729817 L140.430828,1.33606317 L138.562335,1.33606317 Z M123.247507,22.9216091 L124.550878,22.9216091 L124.550878,1.33606317 L123.247507,1.33606317 L123.247507,22.9216091 Z" id="Fill-5"></path>
                    <path d="M14.8584808,13.210893 C13.4824516,12.2364205 11.3035893,11.4826759 8.38109717,10.9717319 C5.65415545,10.5000283 3.77579493,9.88607798 2.7980428,9.14868356 C1.83823108,8.42518681 1.35204607,7.4785097 1.35204607,6.33399507 C1.35204607,5.01780324 1.94497649,4.00817783 3.16223305,3.2470756 C4.38218066,2.48597337 6.0936954,2.09929093 8.2456471,2.09929093 C10.6227509,2.09929093 12.9917815,2.45736051 15.2989177,3.15633194 L16.1645423,2.18022446 L16.1241764,2.16632679 C13.589197,1.36271401 10.9385021,0.954776297 8.2456471,0.954776297 C5.78422339,0.954776297 3.77579493,1.44446506 2.27956507,2.41157992 C0.767188837,3.38932242 0.000236477987,4.7096018 0.000236477987,6.33399507 C0.000236477987,7.90279763 0.645194076,9.15277111 1.91806589,10.0503976 C3.16851219,10.9324914 5.25229035,11.6257402 8.11199108,12.1097064 C11.1170091,12.6083878 13.1424809,13.292644 14.1336884,14.1444899 C15.1150286,14.9889782 15.6128749,15.9994211 15.6128749,17.1480233 C15.6128749,18.5786666 14.9634322,19.7190937 13.6824872,20.5349691 C12.3853958,21.3631072 10.5554744,21.7816726 8.2456471,21.7816726 C5.74744556,21.7816726 3.24296487,21.2846262 0.791408385,20.3158763 L0.000236477987,21.2085977 L0.000236477987,21.2609184 L0.112364016,21.3075165 C2.68412122,22.3825428 5.42093017,22.9278222 8.2456471,22.9278222 C10.8972391,22.9278222 13.0321474,22.4095206 14.5920657,21.3892676 C16.1672334,20.3583869 16.9655815,18.9310136 16.9655815,17.1480233 C16.9655815,15.5269001 16.2569354,14.2025332 14.8584808,13.210893" id="Fill-6"></path>
                </g>
            </g>
        </g>
    </g>
</svg>